<svg xmlns="http://www.w3.org/2000/svg" width="16" height="16" viewBox="0 0 16 16" fill="none"><path fill-rule="evenodd" clip-rule="evenodd" d="M7.90625 3.3125C7.90625 2.19067 8.81568 1.28125 9.9375 1.28125C11.0593 1.28125 11.9688 2.19067 11.9688 3.3125C11.9688 4.43432 11.0593 5.34375 9.9375 5.34375C8.81568 5.34375 7.90625 4.43432 7.90625 3.3125ZM9.9375 2.21875C9.33344 2.21875 8.84375 2.70844 8.84375 3.3125C8.84375 3.91655 9.33345 4.40625 9.9375 4.40625C10.5416 4.40625 11.0312 3.91655 11.0312 3.3125C11.0312 2.70844 10.5416 2.21875 9.9375 2.21875Z" fill="#788795"></path><path fill-rule="evenodd" clip-rule="evenodd" d="M8.59636 6.02449C8.82451 6.14684 8.91028 6.43097 8.78794 6.65912L7.6326 8.81359L9.69853 10.45C9.87497 10.5874 9.99167 10.7692 10.0577 10.9572L10.0603 10.9646L10.0602 10.9646L11.104 14.1021C11.1857 14.3478 11.0528 14.6132 10.8072 14.6949C10.5615 14.7766 10.2961 14.6437 10.2144 14.3981L9.17222 11.2652C9.15741 11.2245 9.13789 11.2016 9.12225 11.1895L9.11814 11.1863L9.11816 11.1863L6.74316 9.30503C6.56528 9.16413 6.51387 8.91605 6.62111 8.71607L7.96173 6.21607C8.08408 5.98792 8.36821 5.90214 8.59636 6.02449Z" fill="#788795"></path><path fill-rule="evenodd" clip-rule="evenodd" d="M7.29817 8.55004C7.51219 8.6957 7.5676 8.98728 7.42193 9.20129L5.79693 11.5888L5.79641 11.5896C5.54165 11.9623 5.214 12.3587 4.92368 12.7067C4.90482 12.7293 4.88617 12.7517 4.86774 12.7738C4.5909 13.1055 4.36364 13.3778 4.23382 13.5726C4.09022 13.788 3.79919 13.8462 3.58378 13.7026C3.36838 13.559 3.31017 13.2679 3.45378 13.0525C3.6133 12.8133 3.87307 12.5022 4.13286 12.1911C4.15651 12.1628 4.18016 12.1345 4.20374 12.1062C4.49792 11.7535 4.79672 11.3907 5.02218 11.0609C5.02227 11.0608 5.02235 11.0607 5.02244 11.0605L6.64692 8.6738C6.79258 8.45978 7.08416 8.40437 7.29817 8.55004Z" fill="#788795"></path><path fill-rule="evenodd" clip-rule="evenodd" d="M5.01922 5.44322C5.11784 5.27256 5.31269 5.18183 5.50679 5.21618L6.51411 5.3945C7.99576 5.66035 9.41981 6.18246 10.7211 6.945C10.721 6.94493 10.7212 6.94507 10.7211 6.945L11.7384 7.53922C11.7647 7.55346 11.7958 7.56174 11.8289 7.56212L13.9933 7.53093C14.2522 7.5272 14.4651 7.73402 14.4688 7.99288C14.4725 8.25174 14.2657 8.4646 14.0068 8.46833L11.8313 8.49968C11.6413 8.49968 11.4492 8.45219 11.2765 8.35506L11.2699 8.35132L10.2474 7.75405C9.04274 7.04805 7.72336 6.56402 6.34909 6.31736C6.34891 6.31733 6.34928 6.3174 6.34909 6.31736L5.66666 6.19656L5.03093 7.29667C4.9014 7.52082 4.61469 7.59752 4.39054 7.46799C4.16639 7.33846 4.08969 7.05175 4.21922 6.8276L5.01922 5.44322Z" fill="#788795"></path><path fill-rule="evenodd" clip-rule="evenodd" d="M3.17285 6.23505C3.30229 6.01085 3.58898 5.93403 3.81318 6.06348L5.80469 7.21328C6.02889 7.34272 6.10571 7.6294 5.97626 7.8536L4.57002 10.2893C4.44057 10.5135 4.15389 10.5903 3.92969 10.4609L1.93818 9.31107C1.71398 9.18163 1.63716 8.89495 1.7666 8.67075L3.17285 6.23505ZM3.75038 7.10975L2.81288 8.73355L3.99249 9.4146L4.92999 7.7908L3.75038 7.10975Z" fill="#788795"></path></svg>