<svg width="20" height="8" viewBox="0 0 20 8" fill="none" xmlns="http://www.w3.org/2000/svg">
<g id="Group 18">
<path id="Vector" d="M12.9269 0.186594C12.6316 0.186594 12.3729 0.378924 12.2293 0.665919L10.001 5.08918L11.171 7.40847C11.2783 7.59514 11.451 7.7318 11.6529 7.7918C11.7086 7.8068 11.7663 7.81447 11.8239 7.81514H11.8326C12.1269 7.81514 12.3833 7.62014 12.5276 7.33181L15.8965 0.63792C15.9499 0.533588 16.0225 0.441256 16.1109 0.366924C16.1992 0.292592 16.3009 0.236926 16.4109 0.203593C16.4662 0.19026 16.5229 0.183594 16.5799 0.183594L12.9269 0.186594Z" fill="#E21E25"/>
<path id="Vector_2" d="M8.34029 7.78914C8.54632 7.7291 8.72116 7.59176 8.82828 7.40581L10.0003 5.08685L7.7683 0.663586C7.62963 0.382924 7.3773 0.193594 7.09531 0.183594C7.0447 0.186169 6.99447 0.193649 6.94531 0.205927C6.73964 0.266272 6.56601 0.40518 6.46199 0.592587C6.44365 0.62092 5.616 2.26256 5.26367 2.95855L7.46764 7.33181C7.61663 7.62047 7.87196 7.81514 8.16662 7.81514H8.17329C8.22996 7.81514 8.28662 7.80747 8.34195 7.7918" fill="#0087B4"/>
<path id="Vector_3" d="M19.8356 5.41917C19.8356 5.41917 17.3789 0.716585 17.3553 0.663586C17.2029 0.375257 16.9343 0.183594 16.6336 0.183594H16.6179C16.5593 0.183594 16.5003 0.190927 16.4429 0.204927C16.3297 0.237976 16.2243 0.293497 16.133 0.368177C16.0418 0.442856 15.9664 0.535163 15.9116 0.639586L14.7373 2.89688C15.438 4.23755 16.1374 5.57887 16.8356 6.92082C17.0407 7.30879 17.3896 7.60099 17.8076 7.7348C18.2258 7.86896 18.6799 7.83426 19.0729 7.63814C19.4655 7.4422 19.7656 7.10019 19.9089 6.68549C20.052 6.27108 20.0266 5.81705 19.8382 5.42117" fill="#029F52"/>
<path id="Vector_4" d="M6.68473 0.183966H3.35412C3.05079 0.183966 2.78679 0.376629 2.63813 0.662291L0.177171 5.39988C-0.0204809 5.79533 -0.0532616 6.25302 0.0860159 6.6726C0.225293 7.09218 0.525263 7.43942 0.920159 7.63818C1.11568 7.73633 1.32865 7.79495 1.54687 7.81068C1.76508 7.8264 1.98425 7.79892 2.19183 7.72981C2.39941 7.6607 2.59132 7.55132 2.75655 7.40793C2.92179 7.26454 3.05712 7.08996 3.15479 6.89419L5.04509 3.25758C5.04509 3.25758 6.4064 0.627625 6.43107 0.592292C6.54007 0.404295 6.71773 0.265631 6.92706 0.206965C6.98539 0.190965 7.04539 0.182966 7.10606 0.183632L6.68473 0.183966Z" fill="#EFBD0D"/>
<path id="Vector_5" d="M11.8431 7.81488C11.7848 7.81488 11.7268 7.80755 11.6705 7.79288C11.467 7.73612 11.2929 7.60376 11.1838 7.42289L10.0028 5.18359L8.8215 7.42322C8.7115 7.60389 8.53551 7.73655 8.32951 7.79322C8.27394 7.80792 8.21666 7.8152 8.15918 7.81488H11.8431Z" fill="#952474"/>
</g>
</svg>
