<svg width="25" height="24" viewBox="0 0 25 24" fill="none" xmlns="http://www.w3.org/2000/svg">
<g id="Room">
<path id="Vector (Stroke)" fill-rule="evenodd" clip-rule="evenodd" d="M12.9331 3.96068C13.0676 4.06881 13.1458 4.23206 13.1458 4.40462V19.5953C13.1458 19.7679 13.0676 19.9311 12.9331 20.0392C12.7986 20.1474 12.6224 20.1887 12.4539 20.1517L5.5421 18.6326C5.28084 18.5752 5.09473 18.3437 5.09473 18.0762V5.92369C5.09473 5.65619 5.28084 5.42473 5.5421 5.36731L12.4539 3.84824C12.6224 3.8112 12.7986 3.85255 12.9331 3.96068ZM6.23403 6.38173V17.6182L12.0065 18.8869V5.11306L6.23403 6.38173Z" fill="#031F26"/>
<path id="Vector (Stroke)_2" fill-rule="evenodd" clip-rule="evenodd" d="M12.0059 5.92365C12.0059 5.60905 12.2609 5.354 12.5755 5.354H19.3354C19.65 5.354 19.905 5.60905 19.905 5.92365V18.0762C19.905 18.3908 19.65 18.6459 19.3354 18.6459H12.5755C12.2609 18.6459 12.0059 18.3908 12.0059 18.0762C12.0059 17.7616 12.2609 17.5066 12.5755 17.5066H18.7657V6.49331H12.5755C12.2609 6.49331 12.0059 6.23826 12.0059 5.92365Z" fill="#031F26"/>
<path id="Vector (Stroke)_3" fill-rule="evenodd" clip-rule="evenodd" d="M10.221 10.6709C10.5356 10.6709 10.7907 10.9259 10.7907 11.2405V12.7596C10.7907 13.0742 10.5356 13.3293 10.221 13.3293C9.90641 13.3293 9.65137 13.0742 9.65137 12.7596V11.2405C9.65137 10.9259 9.90641 10.6709 10.221 10.6709Z" fill="#031F26"/>
</g>
</svg>
